<?xml version="1.0" encoding="UTF-8"?>
<svg xmlns="http://www.w3.org/2000/svg" xmlns:xlink="http://www.w3.org/1999/xlink" width="12px" height="12px" viewBox="0 0 48 48" version="1.1">
<g id="surface569008">
<path style=" stroke:none;fill-rule:nonzero;fill:rgb(47.058824%,56.470588%,61.176471%);fill-opacity:1;" d="M 6 28 L 6 38 C 6 40.210938 7.789062 42 10 42 L 38 42 C 40.210938 42 42 40.210938 42 38 L 42 28 Z M 6 28 "/>
<path style=" stroke:none;fill-rule:nonzero;fill:rgb(27.058824%,35.294118%,39.215686%);fill-opacity:1;" d="M 42 28 C 42 30.210938 40.210938 32 38 32 L 10 32 C 7.789062 32 6 30.210938 6 28 L 9 10 C 9.21875 7.90625 10.789062 6 13 6 L 35 6 C 37.210938 6 38.6875 7.75 39 10 Z M 42 28 "/>
<path style=" stroke:none;fill-rule:nonzero;fill:rgb(39.215686%,86.666667%,9.019608%);fill-opacity:1;" d="M 35 35 C 33.894531 35 33 35.894531 33 37 C 33 38.105469 33.894531 39 35 39 C 36.105469 39 37 38.105469 37 37 C 37 35.894531 36.105469 35 35 35 Z M 35 35 "/>
<path style=" stroke:none;fill-rule:nonzero;fill:rgb(73.333333%,87.058824%,98.431373%);fill-opacity:1;" d="M 24 11 C 17.371094 11 12 14.132812 12 18 C 12 21.863281 17.371094 25 24 25 C 30.628906 25 36 21.863281 36 18 C 36 14.132812 30.628906 11 24 11 Z M 24 19.554688 C 22.527344 19.554688 21.332031 18.859375 21.332031 18 C 21.332031 17.140625 22.527344 16.445312 24 16.445312 C 25.472656 16.445312 26.664062 17.140625 26.664062 18 C 26.664062 18.859375 25.472656 19.554688 24 19.554688 Z M 24 19.554688 "/>
</g>
</svg>
