<?xml version="1.0" encoding="UTF-8"?>
<svg xmlns="http://www.w3.org/2000/svg" xmlns:xlink="http://www.w3.org/1999/xlink" width="12px" height="12px" viewBox="0 0 30 30" version="1.1">
<g id="surface568325">
<path style=" stroke:none;fill-rule:nonzero;fill:rgb(69.019608%,75.686275%,83.137255%);fill-opacity:1;" d="M 3 28.5 C 2.171875 28.5 1.5 27.828125 1.5 27 L 1.5 21 L 4.25 2.792969 C 4.355469 2.054688 4.992188 1.5 5.734375 1.5 L 24.265625 1.5 C 25.007812 1.5 25.644531 2.054688 25.75 2.789062 L 28.503906 21.074219 L 28.5 27 C 28.5 27.828125 27.828125 28.5 27 28.5 Z M 3 28.5 "/>
<path style=" stroke:none;fill-rule:nonzero;fill:rgb(40%,47.45098%,56.078431%);fill-opacity:1;" d="M 24.265625 2 C 24.757812 2 25.183594 2.367188 25.257812 2.867188 L 28 21.074219 L 28 27 C 28 27.550781 27.550781 28 27 28 L 3 28 C 2.449219 28 2 27.550781 2 27 L 2 21.074219 L 4.746094 2.859375 C 4.816406 2.367188 5.238281 2 5.734375 2 L 24.265625 2 M 24.265625 1 L 5.734375 1 C 4.738281 1 3.894531 1.730469 3.753906 2.71875 L 1 21 L 1 27 C 1 28.105469 1.894531 29 3 29 L 27 29 C 28.105469 29 29 28.105469 29 27 L 29 21 L 26.246094 2.71875 C 26.105469 1.730469 25.261719 1 24.265625 1 Z M 24.265625 1 "/>
<path style=" stroke:none;fill-rule:nonzero;fill:rgb(88.235294%,92.156863%,94.901961%);fill-opacity:1;" d="M 5.734375 2 C 5.242188 2 4.816406 2.367188 4.746094 2.859375 L 2.011719 21 L 27.988281 21 L 25.253906 2.859375 C 25.183594 2.367188 24.761719 2 24.265625 2 Z M 5.734375 2 "/>
<path style=" stroke:none;fill-rule:nonzero;fill:rgb(100%,100%,100%);fill-opacity:1;" d="M 24.5 23 C 23.671875 23 23 23.671875 23 24.5 C 23 25.328125 23.671875 26 24.5 26 C 25.328125 26 26 25.328125 26 24.5 C 26 23.671875 25.328125 23 24.5 23 Z M 24.5 23 "/>
<path style=" stroke:none;fill-rule:nonzero;fill:rgb(69.019608%,75.686275%,83.137255%);fill-opacity:1;" d="M 15 6.5 C 10.304688 6.5 6.5 8.960938 6.5 12 C 6.5 15.039062 10.304688 17.5 15 17.5 C 19.695312 17.5 23.5 15.039062 23.5 12 C 23.5 8.960938 19.695312 6.5 15 6.5 Z M 15 6.5 "/>
<path style=" stroke:none;fill-rule:nonzero;fill:rgb(40%,47.45098%,56.078431%);fill-opacity:1;" d="M 15 7 C 19.335938 7 23 9.289062 23 12 C 23 14.710938 19.335938 17 15 17 C 10.664062 17 7 14.710938 7 12 C 7 9.289062 10.664062 7 15 7 M 15 6 C 10.027344 6 6 8.6875 6 12 C 6 15.3125 10.027344 18 15 18 C 19.972656 18 24 15.3125 24 12 C 24 8.6875 19.972656 6 15 6 Z M 15 6 "/>
<path style=" stroke:none;fill-rule:nonzero;fill:rgb(40%,47.45098%,56.078431%);fill-opacity:1;" d="M 15 11 C 13.894531 11 13 11.449219 13 12 C 13 12.550781 13.894531 13 15 13 C 16.105469 13 17 12.550781 17 12 C 17 11.449219 16.105469 11 15 11 Z M 15 11 "/>
</g>
</svg>
